<svg xmlns="http://www.w3.org/2000/svg" width="591.41266pt" height="525pt" fill-rule="evenodd" viewBox="0 0 591.41266 524.99999"><path d="M248.643 470.455h-16.681v1.769h7.1v1.403h-6.464v1.769h12.879v3.738h2.712v-5.507h-6.411v-1.403h7.034v-1.769zM241.448 464.483h-2.251l-.049.086c-1.546 2.685-5.507 3.037-6.686 3.081l-.165.005-.022.176v1.576l.172-.003c4.595-.106 6.834-1.352 7.922-2.424 1.091 1.072 3.329 2.318 7.924 2.424l.173.003v-1.767l-.198-.008c-1.509-.057-5.18-.465-6.675-3.063l-.049-.086zM266.833 464.778h-2.393v1.372h-3.322v-1.065h-9.488v6.707h9.488v-1.059h3.322v2.121c-1.025-.46-2.22-.713-3.488-.713-3.335 0-6.048 1.717-6.048 3.829 0 2.111 2.713 3.828 6.048 3.828 3.323 0 6.034-1.713 6.046-3.816l.005-11.204zm-8.296 2.094v3.134h-4.325v-3.134h4.325zm5.903 1.028v1.085h-3.322V467.9h3.322zm-6.807 8.07c0-1.094 1.489-1.985 3.319-1.985 1.83 0 3.318.891 3.318 1.985s-1.488 1.982-3.318 1.982-3.319-.888-3.319-1.982zM269.628 469.269c0 2.528 2.342 4.585 5.221 4.585 1.716 0 3.302-.742 4.28-1.978h3.755v7.258h2.624v-14.362h-2.624v1.852h-3.781c-.979-1.213-2.557-1.943-4.254-1.943-2.879 0-5.221 2.058-5.221 4.588zm2.644 0c0-1.485 1.155-2.69 2.577-2.69s2.578 1.205 2.578 2.69c0 1.484-1.156 2.689-2.578 2.689s-2.577-1.205-2.577-2.689zm10.612-.896v1.753h-2.935c.063-.289.121-.578.121-.857 0-.293-.061-.596-.131-.896h2.945zM315.14 465.151h-5.981v.003h-1.728v8.678h7.877v-1.747h-5.225V466.9h5.225v-1.749zM322.746 464.767h-2.46v3.468h-1.009v-3.468h-2.628v14.367h2.628v-9.151h1.009v9.151h2.629v-14.367zM298.111 465.132H288.8v1.75h3.36c-.419 4.086-2.69 4.982-3.666 5.17l-.137.029v1.785l.188-.022c2.199-.256 3.837-1.339 4.901-3.167 1.075 1.844 2.729 2.927 4.955 3.173l.187.02v-1.782l-.143-.026c-.986-.174-3.29-1.047-3.713-5.18h3.547v-1.75zM303.196 464.776h-2.427v14.358h2.596v-9.162h1.962v-1.748h-1.962v-3.448zM341.234 464.767h-2.424v7.742h2.595v-3.082h1.887v-1.805h-1.887v-2.855zM341.177 473.454h-13.393v1.805h10.931v3.875h2.632v-5.68zM332.647 464.493h-2.459v1.178h-4.258v1.66h1.22c-.511.557-.794 1.188-.794 1.852 0 1.941 2.326 3.517 5.184 3.517s5.183-1.576 5.183-3.517c0-.664-.283-1.295-.792-1.852h1.088v-1.66h-4.204v-1.178zm-3.625 4.637c0-.99 1.099-1.797 2.452-1.797 1.351 0 2.453.807 2.453 1.797 0 .993-1.102 1.799-2.453 1.799-1.353 0-2.452-.806-2.452-1.799zM359.614 465.681H346.39v1.749h10.74v8.085h2.652v-9.834z" style="fill:#0a2c83;stroke:none" transform="translate(-1063.015 -1673.776) scale(4.58271)"/><path d="M354.686 470.273h-2.483v6.286h-1.927v-6.286h-2.655v6.286h-2.617v1.749h16.011v-1.749h-6.159v-6.286z" style="fill:#0a2c83;stroke:none" transform="translate(-1063.015 -1673.776) scale(4.58271)"/><path d="m263.415 422.208-1.813 3.137 2.51 1.412 3.615-2.087zM264.566 430.478l3.624-.002.023-4.958-3.613 2.087zM328.316 386.826l-3.622.003-.021 4.964 3.612-2.086zM329.468 395.097l1.814-3.137-2.506-1.409-3.613 2.088zM325.161 424.618l3.614 2.087 2.507-1.411-1.814-3.136zM324.673 425.466l.021 4.961h3.622l-.031-2.876zM267.726 392.586l-3.615-2.086-2.509 1.409 1.813 3.137zM268.213 391.74l-.023-4.96-3.624-.004.034 2.877zM299.45 370.06l-2.472 1.464v4.173l4.28-2.498zM296.001 371.527l-2.478-1.467-1.812 3.139 4.29 2.501zM296.001 377.848l-5.209-3.094-1.798 3.111 7.007 4.152zM302.177 374.754l-5.199 3.091v4.168l6.998-4.148zM296.978 445.632l2.472 1.464 1.808-3.14-4.28-2.498zM293.523 447.096l2.478-1.467v-4.173l-4.29 2.5zM298.034 367.519c0 1.26-.691 2.281-1.546 2.281-.854 0-1.545-1.021-1.545-2.281 0-1.261.691-2.282 1.545-2.282.855 0 1.546 1.021 1.546 2.282zM298.034 449.687c0 1.258-.691 2.279-1.546 2.279-.854 0-1.545-1.021-1.545-2.279 0-1.262.691-2.284 1.545-2.284.855 0 1.546 1.022 1.546 2.284zM332.841 389.399c-1.094.629-2.322.541-2.749-.197-.429-.742.11-1.851 1.203-2.482 1.09-.63 2.322-.542 2.75.199.424.74-.114 1.849-1.204 2.48zM261.683 430.483c-1.09.629-2.323.541-2.748-.199-.427-.74.11-1.849 1.202-2.48 1.091-.63 2.322-.541 2.749.198.426.741-.112 1.851-1.203 2.481zM261.681 386.722c1.091.629 1.629 1.738 1.204 2.48-.428.738-1.659.827-2.749.197-1.092-.631-1.632-1.739-1.202-2.48.426-.741 1.657-.829 2.747-.197zM332.841 427.804c1.09.631 1.628 1.74 1.202 2.48-.428.74-1.658.828-2.749.199-1.092-.63-1.631-1.74-1.202-2.481.427-.739 1.655-.828 2.749-.198zM319.054 419.694l6.801-3.832-1.781-3.115-6.826 3.845zM313.764 422.561l.083 7.898 3.592-.014-.088-7.884zM275.723 416.69l-6.912-3.894-1.781 3.116 6.897 3.885zM275.533 422.561l-.084 7.934 3.589.014.082-7.948zM319.294 386.808l-.089 7.815h.565l3.041-1.756.075-6.057zM323.305 393.712l-3.186 1.838-.211.367 6.878 3.867 1.795-3.112zM326.786 417.473l-6.799 3.823.294.505 3.022 1.745 5.278-2.962zM322.811 424.392l-3.167-1.831h-.439l.089 7.885 3.592-.001zM295.743 435.292l-6.749 3.998 1.798 3.111 5.209-3.092v-3.57zM296.978 435.723v3.589l5.199 3.089 1.799-3.111-6.748-3.998zM273.335 422.561l-3.263 1.883-.074 6.051 3.592.002.089-7.936zM273.001 421.4l-6.902-3.879-1.795 3.114 5.282 2.962 3.22-1.86zM272.864 395.554l-3.281-1.895-5.279 2.962 1.795 3.113 6.93-3.896zM273.679 394.623l-.089-7.865-3.592.002.074 6.054 3.136 1.809zM293.036 430.571l-6.776 4.009 1.805 3.101 6.756-3.996zM298.16 433.689l6.745 3.992 1.807-3.101-6.748-3.993zM318.984 397.524l-1.788 3.109 6.878 3.874 1.781-3.114zM317.353 394.623l.082-7.813-3.588-.015-.083 7.828zM299.91 386.6l6.802-4.023-1.807-3.1-6.794 4.019zM294.858 383.494l-6.793-4.017-1.805 3.1 6.806 4.025zM273.952 397.444l-6.922 3.898 1.781 3.116 6.931-3.904zM279.12 394.623l-.082-7.877-3.589.014.083 7.863zM314.506 411.887l1.809 3.106 6.837-3.851-1.24-2.144h-2.287zM307.54 388.348l1.253-2.171-1.152-2.001-6.803 4.026 1.742 3.009zM308.338 394.623h3.576l.084-7.833-2.476.004-1.184 2.048zM316.274 402.239l-1.713 2.981 4.926 2.839h2.538l1.127-1.946zM308.338 422.561v5.619l1.309 2.266 2.351.018-.086-7.903zM302.69 425.897l-1.796 3.09 6.747 3.993 1.199-2.051-1.279-2.215zM285.286 428.694l-1.219 2.114 1.264 2.172 6.782-4.014-1.809-3.158zM284.475 422.561h-3.502l-.084 7.954 2.264-.002 1.322-2.29zM273.373 408.998h-2.388l-1.254 2.194 6.917 3.896 1.822-3.151zM278.392 405.158l-1.727-3.001-6.932 3.906 1.155 1.996h2.495zM286.616 389.119l3.755 2.156 1.77-3.069-6.81-4.03-1.223 2.123 1.171 2.029zM284.475 394.623v-5.811l-1.195-2.068-2.391-.003.084 7.882zM285.895 393.039a1.673 1.673 0 0 1 1.224-.069l1.927.607.855-1.488-4.485-2.579v3.939c.117-.173.283-.313.479-.41zM305.478 393.21l.536.039s.794.033 1.387.598v-4.337l-4.35 2.512.688 1.188zM287.024 424.679a3.756 3.756 0 0 1-.528.035c-.052 0-.105 0-.157-.008a.563.563 0 0 1-.17-.027 1.467 1.467 0 0 1-.64-.338c-.042-.038-.076-.084-.113-.126v3.325l4.421-2.545-.425-.742a17.86 17.86 0 0 1-2.388.426zM306.522 424.71s-.111.036-.169.029c-.054.007-.156 0-.222-.007-.144-.014-.301-.026-.407-.046a16.116 16.116 0 0 1-1.67-.275c-.142-.027-.293-.071-.438-.106l-.444.765 4.229 2.454-.003-3.433a1.423 1.423 0 0 1-.876.619z" style="fill:#1f5fa9;stroke:none" transform="translate(-1063.015 -1673.776) scale(4.58271)"/><path d="M301.79 423.769a13.042 13.042 0 0 1-1.85-.852c-.019-.013-.042-.025-.063-.037a9.788 9.788 0 0 1-.494-.298c-.198-.132-.395-.263-.581-.405-.022-.014-.042-.03-.062-.043a8.917 8.917 0 0 1-2.347-2.605 8.95 8.95 0 0 1-1.786 2.141 9.931 9.931 0 0 1-.679.544c-.356.263-.736.506-1.139.73-.112.063-.224.124-.337.182-.119.066-.24.121-.368.185-.349.165-.715.315-1.094.458-.216.08-.431.152-.644.22l6.135 10.7 6.138-10.651c-.275-.084-.549-.166-.829-.269z" style="fill:#0a2c83;stroke:none" transform="translate(-1063.015 -1673.776) scale(4.58271)"/><path d="m314.024 411.059 4.408-2.528-4.339-2.498-1.489 2.591zM278.86 405.974l-4.417 2.557 4.497 2.593 1.445-2.5z" style="fill:#1f5fa9;stroke:none" transform="translate(-1063.015 -1673.776) scale(4.58271)"/><path d="M319.018 395.57h-10.984c-.001.03.003.056.001.087l.001.043c-.025 1.427-.101 1.488-.258 2.657-.041.278-.082.55-.128.81-.003.025-.009.05-.011.072-.074.437-.157.85-.244 1.252-.003.021-.011.044-.018.067-.055.253-.118.501-.182.736a19.004 19.004 0 0 1-1.032 2.993 19.937 19.937 0 0 0 2.069 2.665c.025.018.045.041.062.06.22.22.355.513.355.83 0 .104-.015.206-.046.308a1.145 1.145 0 0 1-.32.536l-.035.035a1.366 1.366 0 0 1-1.8.015l-.013.017s-.747-.736-1.695-1.95c-.896 1.251-1.622 1.751-1.622 1.751l-.017-.012a1.36 1.36 0 0 1-.889.324c-.573 0-1.065-.349-1.239-.828a1.308 1.308 0 0 1-1.096.559c-.293 0-.566-.09-.783-.241l-.018-.016a1.187 1.187 0 0 1-.321-.349c-.529-.682-1.47-2.454-1.141-6.213v-.003c0-.004 0-.013.004-.02.018-.167.08-.325.167-.461a1.31 1.31 0 0 1 1.115-.592c.478 0 .891.236 1.118.592a1.088 1.088 0 0 1 .146.856c-.023.275-.22 2.682.829 4.642.043.066.076.141.107.213.07-.11.164-.207.264-.292a12.54 12.54 0 0 0 1.748-2.279 17.503 17.503 0 0 1-1.509-3.14 9.614 9.614 0 0 1-.245-.736c-.008-.023-.01-.046-.021-.067-.118-.412-.22-.829-.293-1.252-.008-.022-.01-.047-.013-.072a9.684 9.684 0 0 1-.152-1.447h.006c0-.019-.006-.033-.006-.049 0-.663.582-1.199 1.298-1.199.678 0 1.236.483 1.288 1.101h.001s.032.287.144.784c.052.229.119.5.207.81.002.025.015.05.018.072.108.369.239.793.413 1.252l.023.067c.083.218.173.445.273.675.071-.228.137-.45.195-.675.004-.023.011-.046.017-.067.112-.433.206-.849.281-1.252 0-.022.008-.047.008-.072.054-.277.094-.548.129-.81.144-1.082.18-1.469.162-2.141-.088-.564-.558-.513-.558-.513h-2.74l-.168.007c-.686-.01-1.239-.565-1.239-1.23 0-.163-.002-.357.038-.505.125-.441.479-.771 1.011-.778l.238.013h.727l-6.164-10.642-6.526 11.32c.599.306.912.932.695 1.485-.233.636-1.052.95-1.811.701l-1.616-.504H273.96l7.514 13.054-7.514 12.995h13.847a14.3 14.3 0 0 0 1.422-.358c1.236-.4 2.635-.937 3.628-1.957.239-.244.455-.465.655-.752.016-.026.029-.048.044-.069.246-.369.455-.769.62-1.212.012-.022.016-.046.025-.069.08-.23.152-.466.205-.713.034-.145.064-.3.089-.456h-7.498c-.838 0-1.524-.636-1.524-1.412v-.128c0-.776.686-1.411 1.524-1.411h7.79v-1.839c0-.772.716-1.409 1.596-1.409h.142c.881 0 1.6.637 1.6 1.409v1.839h7.737c.835 0 1.523.635 1.523 1.411v.128c0 .776-.688 1.412-1.523 1.412h-7.577a6.392 6.392 0 0 0 .293 1.169c.007.023.018.047.025.069.169.443.374.843.618 1.212a.532.532 0 0 1 .05.069c.197.287.4.559.65.787 1.236 1.121 2.553 1.602 3.973 2.001.383.109.667.201.937.279h14.187l-7.502-12.995zm-34.049 1.779a1.11 1.11 0 0 1 .469-.556c.365-.229.866-.297 1.351-.144l2.995.97c.426.142.752.431.909.768.116.261.138.541.043.811 0 .003 0 .014-.008.015-.002.022-.011.039-.017.059-.266.591-1.06.878-1.795.64l-1.983-.64-.219-.074-.794-.254a1.552 1.552 0 0 1-.882-.703 1.076 1.076 0 0 1-.069-.892zm4.873 4.864c.153 3.256-2.648 6.137-2.85 6.341a1.391 1.391 0 0 1-1.049.461c-.268 0-.517-.073-.727-.199a1.256 1.256 0 0 1-.565-.666l-.004-.012a1.2 1.2 0 0 1 .417-1.313l.081-.079c2.147-2.196 2.034-4.831 2.034-4.831l.033.004c.029-.239.138-.455.301-.625a1.408 1.408 0 0 1 1.016-.422c.41 0 .772.167 1.022.422a1.105 1.105 0 0 1 .291.919zm2.494 5.778a1.164 1.164 0 0 1-.318.349l-.017.016a1.39 1.39 0 0 1-.784.241c-.714 0-1.296-.536-1.296-1.195 0-.221.07-.432.18-.61 1.05-1.96.852-4.367.826-4.642a1.146 1.146 0 0 1-.03-.249c0-.221.067-.43.18-.607a1.314 1.314 0 0 1 1.115-.592c.477 0 .893.236 1.117.592.088.136.145.294.167.461h.002a.079.079 0 0 1 .002.02v.003c.328 3.759-.606 5.531-1.144 6.213zm4.771-7.5v7.399c0 .798-.708 1.456-1.576 1.456h-.021c-.866 0-1.574-.658-1.574-1.456v-8.263h-1.121c-.45 0-.852-.149-1.144-.388-.025-.022-.056-.047-.08-.072a1.068 1.068 0 0 1-.35-.768c0-.016 0-.027.002-.042.026-.656.724-1.189 1.572-1.189h1.121v-3.973c0-.313.109-.604.293-.844a1.616 1.616 0 0 1 1.281-.609h.021c.868 0 1.576.656 1.576 1.453v.415h1.517c.861 0 1.571.553 1.571 1.229s-.71 1.23-1.571 1.23h-1.517v1.099h1.634c.851 0 1.544.533 1.57 1.189 0 .015.004.026.004.042 0 .289-.133.557-.35.768-.027.025-.056.05-.084.072-.283.239-.69.388-1.14.388h-1.634z" style="fill:#0a2c83;stroke:none" transform="translate(-1063.015 -1673.776) scale(4.58271)"/></svg>